<svg xmlns="http://www.w3.org/2000/svg" width="60" height="36" fill="none">
  <path fill="#333331" d="M0 18a18 18 0 1 1 36 0 18 18 0 0 1-36 0Z"/>
  <path stroke="#FAFAFA" stroke-opacity=".16" d="M.5 18a17.5 17.5 0 1 1 35 0 17.5 17.5 0 0 1-35 0Z"/>
  <path fill="#FAFAFA" fill-rule="evenodd" d="M25.65 21.3c-.42-.21-2.48-1.22-2.86-1.36-.38-.14-.67-.2-.94.2-.28.42-1.1 1.36-1.33 1.63-.25.28-.49.31-.92.1-.41-.2-1.76-.63-3.37-2.06a12.52 12.52 0 0 1-2.32-2.87c-.24-.41-.02-.64.18-.84.2-.2.42-.5.63-.73l.16-.2c.1-.16.16-.3.26-.5.14-.28.07-.52-.03-.73-.11-.2-.95-2.26-1.3-3.09-.35-.83-.7-.69-.94-.69-.25 0-.53-.04-.8-.04-.28 0-.74.11-1.12.53-.39.41-1.47 1.42-1.47 3.47 0 .48.08.96.21 1.4a9.3 9.3 0 0 0 1.5 2.89c.2.27 2.9 4.6 7.15 6.28 4.26 1.65 4.26 1.1 5.03 1.02.76-.06 2.47-1 2.82-1.97.35-.97.35-1.8.25-1.97-.11-.17-.39-.27-.8-.48h.01Z" clip-rule="evenodd" opacity=".6"/>
  <path fill="#333331" d="M24 18a18 18 0 1 1 36 0 18 18 0 0 1-36 0Z"/>
  <path stroke="#FAFAFA" stroke-opacity=".16" d="M24.5 18a17.5 17.5 0 1 1 35 0 17.5 17.5 0 0 1-35 0Z"/>
  <g opacity=".6">
    <path fill="#fff" d="m41.88 20.5 9.45-9.5H32.46l9.42 9.5Z"/>
    <path fill="#fff" d="M33.1 25h17.78c-1.86-1.9-3.7-3.8-5.7-5.83-.34.39-.7.85-1.1 1.26-2.02 2.05-2.2 2.06-4.24-.05-.4-.41-.63-.97-.85-1.32-2.2 2.2-4.03 4.06-5.9 5.94ZM52 12.82l-5.46 5.38L52 23.8V12.82ZM32 12.79v11.04l5.54-5.57L32 12.79Z"/>
    <path fill="#FAFAFA" d="M41.88 20.5 32.46 11h18.87l-9.45 9.5Z"/>
    <path fill="#FAFAFA" d="m33.1 25 5.89-5.95c.22.36.45.92.85 1.33 2.04 2.1 2.22 2.1 4.23.04.4-.4.77-.87 1.1-1.25l5.7 5.83H33.1ZM52 12.82v11l-5.46-5.62L52 12.82ZM32 12.79l5.54 5.47L32 23.82V12.8Z"/>
  </g>
</svg>
