<svg xmlns="http://www.w3.org/2000/svg" width="28" height="28" fill="none">
  <rect width="28" height="28" fill="#fff" rx="14"/>
  <rect width="21.78" height="21.78" x="3.11" y="3.11" fill="#fff" rx="4.67"/>
  <path fill="#E2761B" stroke="#E2761B" stroke-linecap="round" stroke-linejoin="round" stroke-width=".07" d="m21.85 5.54-6.8 5.05L16.3 7.6l5.55-2.07Z"/>
  <path fill="#E4761B" stroke="#E4761B" stroke-linecap="round" stroke-linejoin="round" stroke-width=".07" d="m6.14 5.54 6.75 5.1-1.2-3.03-5.55-2.07ZM19.4 17.25l-1.81 2.77 3.87 1.07 1.12-3.78-3.18-.06ZM5.43 17.3l1.1 3.79 3.88-1.07-1.81-2.77-3.17.06Z"/>
  <path fill="#E4761B" stroke="#E4761B" stroke-linecap="round" stroke-linejoin="round" stroke-width=".07" d="M10.2 12.56 9.1 14.19l3.85.17-.14-4.13-2.63 2.33ZM17.8 12.56l-2.67-2.38-.09 4.18 3.85-.17-1.09-1.63ZM10.41 20.02l2.31-1.13-2-1.55-.31 2.68ZM15.27 18.9l2.32 1.12-.32-2.68-2 1.55Z"/>
  <path fill="#D7C1B3" stroke="#D7C1B3" stroke-linecap="round" stroke-linejoin="round" stroke-width=".07" d="m17.59 20.02-2.32-1.13.19 1.51-.02.64 2.15-1.02ZM10.41 20.02l2.16 1.02-.02-.64.17-1.5-2.3 1.12Z"/>
  <path fill="#233447" stroke="#233447" stroke-linecap="round" stroke-linejoin="round" stroke-width=".07" d="m12.6 16.34-1.93-.57 1.36-.62.57 1.19ZM15.4 16.34l.56-1.2 1.37.63-1.94.57Z"/>
  <path fill="#CD6116" stroke="#CD6116" stroke-linecap="round" stroke-linejoin="round" stroke-width=".07" d="m10.41 20.02.33-2.77-2.14.06 1.81 2.71ZM17.26 17.25l.33 2.77 1.8-2.71-2.13-.06ZM18.89 14.2l-3.85.16.36 1.98.57-1.2 1.36.63 1.56-1.58ZM10.67 15.77l1.37-.62.56 1.19.36-1.98-3.85-.17 1.56 1.58Z"/>
  <path fill="#E4751F" stroke="#E4751F" stroke-linecap="round" stroke-linejoin="round" stroke-width=".07" d="m9.11 14.2 1.62 3.14-.06-1.57-1.56-1.58ZM17.34 15.77l-.07 1.57 1.62-3.15-1.55 1.58ZM12.96 14.36l-.36 1.98.45 2.33.1-3.07-.19-1.24ZM15.05 14.36l-.19 1.23.08 3.08.46-2.33-.35-1.98Z"/>
  <path fill="#F6851B" stroke="#F6851B" stroke-linecap="round" stroke-linejoin="round" stroke-width=".07" d="m15.4 16.34-.46 2.33.33.22 2-1.55.07-1.57-1.94.57ZM10.67 15.77l.06 1.57 2 1.55.32-.22-.45-2.33-1.93-.57Z"/>
  <path fill="#C0AD9E" stroke="#C0AD9E" stroke-linecap="round" stroke-linejoin="round" stroke-width=".07" d="m15.44 21.04.02-.63-.17-.16H12.7l-.16.16.02.63-2.16-1.02.75.62 1.53 1.06h2.62l1.53-1.06.75-.62-2.15 1.02Z"/>
  <path fill="#161616" stroke="#161616" stroke-linecap="round" stroke-linejoin="round" stroke-width=".07" d="m15.27 18.9-.33-.23h-1.89l-.33.22-.17 1.51.16-.15h2.57l.18.15-.19-1.5Z"/>
  <path fill="#763D16" stroke="#763D16" stroke-linecap="round" stroke-linejoin="round" stroke-width=".07" d="m22.13 10.92.59-2.8-.87-2.58-6.58 4.88 2.53 2.14 3.58 1.04.79-.92-.34-.25.54-.5-.42-.32.55-.42-.37-.27ZM5.29 8.13l.58 2.79-.37.27.54.42-.41.33.54.5-.34.24.79.92 3.57-1.04 2.53-2.14-6.57-4.88-.86 2.59Z"/>
  <path fill="#F6851B" stroke="#F6851B" stroke-linecap="round" stroke-linejoin="round" stroke-width=".07" d="m21.38 13.6-3.58-1.04 1.09 1.63-1.62 3.15 2.13-.03h3.18l-1.2-3.7ZM10.2 12.56 6.61 13.6l-1.2 3.7H8.6l2.13.04-1.62-3.15 1.08-1.63ZM15.05 14.36l.22-3.94 1.04-2.81H11.7l1.02 2.8.24 3.95.08 1.25.01 3.06h1.9V15.6l.1-1.25Z"/>
</svg>
