<svg xmlns="http://www.w3.org/2000/svg" width="36" height="36" fill="none">
  <rect width="36" height="36" fill="#FAFAFA" rx="18"/>
  <path fill="#4285F4" d="M28.56 18.25c0-.78-.07-1.53-.2-2.25H18v4.25h5.92a5.06 5.06 0 0 1-2.2 3.32v2.77h3.56c2.08-1.92 3.28-4.74 3.28-8.09Z"/>
  <path fill="#34A853" d="M18 29c2.97 0 5.46-.98 7.28-2.66l-3.56-2.77A6.61 6.61 0 0 1 18 24.63a6.56 6.56 0 0 1-6.16-4.53H8.17v2.85A11 11 0 0 0 18 29Z"/>
  <path fill="#FBBC05" d="M11.85 20.09a6.61 6.61 0 0 1 0-4.18v-2.85H8.17a11 11 0 0 0 0 9.88l3.68-2.85Z"/>
  <path fill="#EA4335" d="M18 11.38c1.61 0 3.06.55 4.2 1.64l3.16-3.15A10.57 10.57 0 0 0 18 7a11 11 0 0 0-9.83 6.06l3.67 2.85A6.56 6.56 0 0 1 18 11.38Z"/>
</svg>
