<svg xmlns="http://www.w3.org/2000/svg" width="28" height="28" fill="none">
  <rect width="28" height="28" fill="#3B99FC" rx="14"/>
  <rect width="21.78" height="21.78" x="3.11" y="3.11" fill="#3B99FC" rx="4.67"/>
  <path fill="#fff" d="M9.64 11.18a6.17 6.17 0 0 1 8.72 0l.3.29a.3.3 0 0 1 0 .44l-1 .99a.15.15 0 0 1-.22 0l-.4-.4a4.3 4.3 0 0 0-6.08 0l-.43.43a.15.15 0 0 1-.22 0l-1-1a.3.3 0 0 1 0-.43l.33-.32Zm10.78 2.05.88.88a.3.3 0 0 1 0 .44l-3.98 3.98a.3.3 0 0 1-.44 0l-2.83-2.82a.08.08 0 0 0-.1 0l-2.83 2.82a.3.3 0 0 1-.44 0L6.7 14.55a.3.3 0 0 1 0-.44l.88-.88a.3.3 0 0 1 .44 0l2.83 2.83c.03.03.08.03.1 0l2.83-2.83a.3.3 0 0 1 .44 0l2.82 2.83c.03.03.08.03.11 0l2.83-2.83a.3.3 0 0 1 .44 0Z"/>
</svg>
