<svg xmlns="http://www.w3.org/2000/svg" width="32" height="32" fill="none">
  <g stroke="#FAFAFA" stroke-linecap="round" stroke-linejoin="round" stroke-width="1.5" opacity=".4">
    <path d="M19 16.68v3.14c0 2.63-1.05 3.68-3.68 3.68h-3.14c-2.63 0-3.68-1.05-3.68-3.68v-3.14c0-2.63 1.05-3.68 3.68-3.68h3.14c2.63 0 3.68 1.05 3.68 3.68Z"/>
    <path d="M23.5 12.18v3.14c0 2.63-1.05 3.68-3.68 3.68H19v-2.32c0-2.63-1.05-3.68-3.68-3.68H13v-.82c0-2.63 1.05-3.68 3.68-3.68h3.14c2.63 0 3.68 1.05 3.68 3.68Z"/>
  </g>
</svg>
