<svg xmlns="http://www.w3.org/2000/svg" width="24" height="25" fill="none">
  <path stroke="#FAFAFA" stroke-linecap="round" stroke-linejoin="round" stroke-width="1.5" d="M12 9.77v-7l-2 2M12 2.77l2 2M1.98 13.77h4.41c.38 0 .72.21.89.55l1.17 2.34a2 2 0 0 0 1.79 1.11h3.53a2 2 0 0 0 1.79-1.1l1.17-2.35a1 1 0 0 1 .89-.55h4.36"/>
  <path stroke="#FAFAFA" stroke-linecap="round" stroke-linejoin="round" stroke-width="1.5" d="M7 5.9c-3.54.52-5 2.6-5 6.87v3c0 5 2 7 7 7h6c5 0 7-2 7-7v-3c0-4.27-1.46-6.35-5-6.87"/>
</svg>
