<svg xmlns="http://www.w3.org/2000/svg" width="24" height="25" fill="none">
  <path stroke="#FAFAFA" stroke-linecap="round" stroke-linejoin="round" stroke-width="1.5" d="M14 16.77c0 1.77-.77 3.37-2 4.46a6 6 0 1 1-5.58-10.25 6.02 6.02 0 0 0 7.16 3.58 6 6 0 0 1 .42 2.21Z"/>
  <path stroke="#FAFAFA" stroke-linecap="round" stroke-linejoin="round" stroke-width="1.5" d="M18 8.77a6 6 0 1 1-11.99.01 6 6 0 0 1 11.99 0Z"/>
  <path stroke="#FAFAFA" stroke-linecap="round" stroke-linejoin="round" stroke-width="1.5" d="M22 16.77a6 6 0 0 1-10 4.46 5.95 5.95 0 0 0 1.58-6.67 6.02 6.02 0 0 0 4-3.58 6.01 6.01 0 0 1 4.42 5.8Z"/>
</svg>
